<svg width="70" height="70" viewBox="0 0 70 70" fill="none" xmlns="http://www.w3.org/2000/svg">
<path d="M59.2607 11.6143L36.0322 3.69824C35.752 3.60254 35.376 3.55469 35 3.55469C34.624 3.55469 34.248 3.60254 33.9678 3.69824L10.7393 11.6143C10.1719 11.8057 9.70703 12.4619 9.70703 13.0635V46.04C9.70703 46.6416 10.0967 47.4346 10.5684 47.8105L34.1318 66.1719C34.3711 66.3564 34.6787 66.4521 34.9932 66.4521C35.3076 66.4521 35.6221 66.3564 35.8545 66.1719L59.418 47.8105C59.8896 47.4414 60.2793 46.6484 60.2793 46.04V13.0635C60.293 12.4619 59.8281 11.8125 59.2607 11.6143ZM55.3711 44.7275L35 60.6006L14.6289 44.7275V15.4971L35 8.55176L55.3711 15.4971V44.7275ZM27.6309 30.9873C27.4258 30.707 27.0977 30.5361 26.7422 30.5361H22.9688C22.5244 30.5361 22.2646 31.042 22.5244 31.4043L31.165 43.2988C31.2672 43.4387 31.4009 43.5524 31.5554 43.6309C31.7098 43.7093 31.8805 43.7501 32.0537 43.7501C32.2269 43.7501 32.3976 43.7093 32.5521 43.6309C32.7065 43.5524 32.8402 43.4387 32.9424 43.2988L47.4756 23.29C47.7354 22.9277 47.4756 22.4219 47.0312 22.4219H43.2578C42.9092 22.4219 42.5742 22.5928 42.3691 22.873L32.0537 37.0781L27.6309 30.9873Z" fill="white"/>
</svg>
