<svg width="60" height="60" viewBox="0 0 60 60" fill="none" xmlns="http://www.w3.org/2000/svg">
<g filter="url(#filter0_d_93_1454)">
<path d="M48.7424 19.9724L29.9999 38.2424L11.2574 19.9724C10.9225 19.6454 10.473 19.4622 10.0049 19.4622C9.53676 19.4622 9.08723 19.6454 8.75236 19.9724C8.59022 20.1313 8.4614 20.3209 8.37347 20.5302C8.28553 20.7395 8.24023 20.9642 8.24023 21.1912C8.24023 21.4182 8.28553 21.6429 8.37347 21.8522C8.4614 22.0615 8.59022 22.2511 8.75236 22.4099L28.6911 41.8499C29.0413 42.1912 29.5109 42.3823 29.9999 42.3823C30.4888 42.3823 30.9585 42.1912 31.3086 41.8499L51.2474 22.4137C51.4106 22.2547 51.5404 22.0646 51.6291 21.8547C51.7177 21.6447 51.7633 21.4191 51.7633 21.1912C51.7633 20.9633 51.7177 20.7377 51.6291 20.5277C51.5404 20.3178 51.4106 20.1277 51.2474 19.9687C50.9125 19.6416 50.463 19.4585 49.9949 19.4585C49.5268 19.4585 49.0772 19.6416 48.7424 19.9687V19.9724Z" fill="white"/>
</g>
<defs>
<filter id="filter0_d_93_1454" x="4.24023" y="19.4585" width="51.5229" height="30.9238" filterUnits="userSpaceOnUse" color-interpolation-filters="sRGB">
<feFlood flood-opacity="0" result="BackgroundImageFix"/>
<feColorMatrix in="SourceAlpha" type="matrix" values="0 0 0 0 0 0 0 0 0 0 0 0 0 0 0 0 0 0 127 0" result="hardAlpha"/>
<feOffset dy="4"/>
<feGaussianBlur stdDeviation="2"/>
<feComposite in2="hardAlpha" operator="out"/>
<feColorMatrix type="matrix" values="0 0 0 0 0 0 0 0 0 0 0 0 0 0 0 0 0 0 0.25 0"/>
<feBlend mode="normal" in2="BackgroundImageFix" result="effect1_dropShadow_93_1454"/>
<feBlend mode="normal" in="SourceGraphic" in2="effect1_dropShadow_93_1454" result="shape"/>
</filter>
</defs>
</svg>
