<svg width="30" height="30" viewBox="0 0 30 30" fill="none" xmlns="http://www.w3.org/2000/svg">
<path d="M23.5 21.9167H6.60345C6.4434 21.9167 6.28991 21.8552 6.17675 21.7458C6.06358 21.6364 6 21.488 6 21.3333C6 21.1786 6.06358 21.0303 6.17675 20.9209C6.28991 20.8115 6.4434 20.75 6.60345 20.75H23.5C23.66 20.75 23.8135 20.8115 23.9267 20.9209C24.0399 21.0303 24.1034 21.1786 24.1034 21.3333C24.1034 21.488 24.0399 21.6364 23.9267 21.7458C23.8135 21.8552 23.66 21.9167 23.5 21.9167Z" fill="white"/>
<path d="M23.5 16.0834H6.60345C6.4434 16.0834 6.28991 16.0219 6.17675 15.9125C6.06358 15.8031 6 15.6547 6 15.5C6 15.3453 6.06358 15.1969 6.17675 15.0875C6.28991 14.9781 6.4434 14.9167 6.60345 14.9167H23.5C23.66 14.9167 23.8135 14.9781 23.9267 15.0875C24.0399 15.1969 24.1034 15.3453 24.1034 15.5C24.1034 15.6547 24.0399 15.8031 23.9267 15.9125C23.8135 16.0219 23.66 16.0834 23.5 16.0834Z" fill="white"/>
<path d="M23.5 10.25H6.60345C6.4434 10.25 6.28991 10.1885 6.17675 10.0791C6.06358 9.96973 6 9.82136 6 9.66665C6 9.51194 6.06358 9.36356 6.17675 9.25417C6.28991 9.14477 6.4434 9.08331 6.60345 9.08331H23.5C23.66 9.08331 23.8135 9.14477 23.9267 9.25417C24.0399 9.36356 24.1034 9.51194 24.1034 9.66665C24.1034 9.82136 24.0399 9.96973 23.9267 10.0791C23.8135 10.1885 23.66 10.25 23.5 10.25Z" fill="white"/>
</svg>
