<svg width="46" height="46" viewBox="0 0 46 46" fill="none" xmlns="http://www.w3.org/2000/svg">
<g filter="url(#filter0_d_93_1437)">
<path d="M17.2079 37C18.3745 37 19.3202 35.9926 19.3202 34.75C19.3202 33.5074 18.3745 32.5 17.2079 32.5C16.0414 32.5 15.0957 33.5074 15.0957 34.75C15.0957 35.9926 16.0414 37 17.2079 37Z" fill="white"/>
</g>
<g filter="url(#filter1_d_93_1437)">
<path d="M30.041 37C31.2075 37 32.1532 35.9926 32.1532 34.75C32.1532 33.5074 31.2075 32.5 30.041 32.5C28.8744 32.5 27.9287 33.5074 27.9287 34.75C27.9287 35.9926 28.8744 37 30.041 37Z" fill="white"/>
</g>
<g filter="url(#filter2_d_93_1437)">
<path d="M35.7484 10.37C35.661 10.2553 35.5509 10.1626 35.4259 10.0986C35.3009 10.0347 35.1642 10.001 35.0255 9.99999H15.4802L16.0904 12H33.7957L31.2892 24H17.2075L12.9173 9.52999C12.8709 9.37645 12.7903 9.23714 12.6825 9.12396C12.5746 9.01077 12.4426 8.92707 12.2977 8.87999L8.44876 7.61999C8.33041 7.58125 8.20605 7.56772 8.0828 7.58017C7.95954 7.59262 7.83979 7.63082 7.73038 7.69257C7.50944 7.81728 7.34404 8.03038 7.2706 8.28499C7.19715 8.53959 7.22166 8.81486 7.33873 9.05021C7.45581 9.28557 7.65586 9.46175 7.89488 9.53999L11.2651 10.64L15.5741 25.14L14.0345 26.48L13.9124 26.61C13.5316 27.0775 13.3157 27.6718 13.302 28.2906C13.2883 28.9094 13.4776 29.5139 13.8373 30C14.0932 30.3314 14.4183 30.5945 14.7868 30.7682C15.1552 30.9418 15.5566 31.0212 15.959 31H31.6271C31.8761 31 32.1149 30.8946 32.2909 30.7071C32.467 30.5196 32.5659 30.2652 32.5659 30C32.5659 29.7348 32.467 29.4804 32.2909 29.2929C32.1149 29.1053 31.8761 29 31.6271 29H15.8088C15.7007 28.9961 15.5953 28.9625 15.503 28.9025C15.4106 28.8426 15.3343 28.7583 15.2814 28.6577C15.2286 28.5572 15.201 28.4439 15.2013 28.3286C15.2015 28.2134 15.2297 28.1002 15.283 28L17.5455 26H32.0402C32.2572 26.0056 32.4693 25.931 32.6405 25.7888C32.8117 25.6466 32.9313 25.4456 32.979 25.22L35.9549 11.22C35.9834 11.0709 35.9797 10.9168 35.9439 10.7696C35.9081 10.6223 35.8412 10.4856 35.7484 10.37Z" fill="white"/>
</g>
<defs>
<filter id="filter0_d_93_1437" x="11.0957" y="32.5" width="12.2246" height="12.5" filterUnits="userSpaceOnUse" color-interpolation-filters="sRGB">
<feFlood flood-opacity="0" result="BackgroundImageFix"/>
<feColorMatrix in="SourceAlpha" type="matrix" values="0 0 0 0 0 0 0 0 0 0 0 0 0 0 0 0 0 0 127 0" result="hardAlpha"/>
<feOffset dy="4"/>
<feGaussianBlur stdDeviation="2"/>
<feComposite in2="hardAlpha" operator="out"/>
<feColorMatrix type="matrix" values="0 0 0 0 0 0 0 0 0 0 0 0 0 0 0 0 0 0 0.25 0"/>
<feBlend mode="normal" in2="BackgroundImageFix" result="effect1_dropShadow_93_1437"/>
<feBlend mode="normal" in="SourceGraphic" in2="effect1_dropShadow_93_1437" result="shape"/>
</filter>
<filter id="filter1_d_93_1437" x="23.9287" y="32.5" width="12.2246" height="12.5" filterUnits="userSpaceOnUse" color-interpolation-filters="sRGB">
<feFlood flood-opacity="0" result="BackgroundImageFix"/>
<feColorMatrix in="SourceAlpha" type="matrix" values="0 0 0 0 0 0 0 0 0 0 0 0 0 0 0 0 0 0 127 0" result="hardAlpha"/>
<feOffset dy="4"/>
<feGaussianBlur stdDeviation="2"/>
<feComposite in2="hardAlpha" operator="out"/>
<feColorMatrix type="matrix" values="0 0 0 0 0 0 0 0 0 0 0 0 0 0 0 0 0 0 0.25 0"/>
<feBlend mode="normal" in2="BackgroundImageFix" result="effect1_dropShadow_93_1437"/>
<feBlend mode="normal" in="SourceGraphic" in2="effect1_dropShadow_93_1437" result="shape"/>
</filter>
<filter id="filter2_d_93_1437" x="3.229" y="7.57568" width="36.7446" height="31.4277" filterUnits="userSpaceOnUse" color-interpolation-filters="sRGB">
<feFlood flood-opacity="0" result="BackgroundImageFix"/>
<feColorMatrix in="SourceAlpha" type="matrix" values="0 0 0 0 0 0 0 0 0 0 0 0 0 0 0 0 0 0 127 0" result="hardAlpha"/>
<feOffset dy="4"/>
<feGaussianBlur stdDeviation="2"/>
<feComposite in2="hardAlpha" operator="out"/>
<feColorMatrix type="matrix" values="0 0 0 0 0 0 0 0 0 0 0 0 0 0 0 0 0 0 0.25 0"/>
<feBlend mode="normal" in2="BackgroundImageFix" result="effect1_dropShadow_93_1437"/>
<feBlend mode="normal" in="SourceGraphic" in2="effect1_dropShadow_93_1437" result="shape"/>
</filter>
</defs>
</svg>
