<svg width="46" height="46" viewBox="0 0 46 46" fill="none" xmlns="http://www.w3.org/2000/svg">
<path d="M17.2079 38C18.3745 38 19.3202 36.9926 19.3202 35.75C19.3202 34.5074 18.3745 33.5 17.2079 33.5C16.0414 33.5 15.0957 34.5074 15.0957 35.75C15.0957 36.9926 16.0414 38 17.2079 38Z" fill="white"/>
<path d="M30.041 38C31.2075 38 32.1532 36.9926 32.1532 35.75C32.1532 34.5074 31.2075 33.5 30.041 33.5C28.8744 33.5 27.9287 34.5074 27.9287 35.75C27.9287 36.9926 28.8744 38 30.041 38Z" fill="white"/>
<path d="M35.7484 11.37C35.661 11.2553 35.5509 11.1626 35.4259 11.0986C35.3009 11.0347 35.1642 11.001 35.0255 11H15.4802L16.0904 13H33.7957L31.2892 25H17.2075L12.9173 10.53C12.8709 10.3764 12.7903 10.2371 12.6825 10.124C12.5746 10.0108 12.4426 9.92707 12.2977 9.87999L8.44876 8.61999C8.33041 8.58125 8.20605 8.56772 8.0828 8.58017C7.95954 8.59262 7.83979 8.63082 7.73038 8.69257C7.50944 8.81728 7.34404 9.03038 7.2706 9.28499C7.19715 9.53959 7.22166 9.81486 7.33873 10.0502C7.45581 10.2856 7.65586 10.4617 7.89488 10.54L11.2651 11.64L15.5741 26.14L14.0345 27.48L13.9124 27.61C13.5316 28.0775 13.3157 28.6718 13.302 29.2906C13.2883 29.9094 13.4776 30.5139 13.8373 31C14.0932 31.3314 14.4183 31.5945 14.7868 31.7682C15.1552 31.9418 15.5566 32.0212 15.959 32H31.6271C31.8761 32 32.1149 31.8946 32.2909 31.7071C32.467 31.5196 32.5659 31.2652 32.5659 31C32.5659 30.7348 32.467 30.4804 32.2909 30.2929C32.1149 30.1053 31.8761 30 31.6271 30H15.8088C15.7007 29.9961 15.5953 29.9625 15.503 29.9025C15.4106 29.8426 15.3343 29.7583 15.2814 29.6577C15.2286 29.5572 15.201 29.4439 15.2013 29.3286C15.2015 29.2134 15.2297 29.1002 15.283 29L17.5455 27H32.0402C32.2572 27.0056 32.4693 26.931 32.6405 26.7888C32.8117 26.6466 32.9313 26.4456 32.979 26.22L35.9549 12.22C35.9834 12.0709 35.9797 11.9168 35.9439 11.7696C35.9081 11.6223 35.8412 11.4856 35.7484 11.37V11.37Z" fill="white"/>
</svg>
