<svg width="30" height="30" viewBox="0 0 30 30" fill="none" xmlns="http://www.w3.org/2000/svg">
<path d="M13.0473 23.1087C13.6236 23.1087 14.0909 22.5612 14.0909 21.8859C14.0909 21.2105 13.6236 20.663 13.0473 20.663C12.4709 20.663 12.0037 21.2105 12.0037 21.8859C12.0037 22.5612 12.4709 23.1087 13.0473 23.1087Z" fill="white"/>
<path d="M19.3878 23.1087C19.9642 23.1087 20.4314 22.5612 20.4314 21.8859C20.4314 21.2105 19.9642 20.663 19.3878 20.663C18.8115 20.663 18.3442 21.2105 18.3442 21.8859C18.3442 22.5612 18.8115 23.1087 19.3878 23.1087Z" fill="white"/>
<path d="M22.2078 8.63589C22.1646 8.57355 22.1102 8.52318 22.0485 8.48841C21.9867 8.45364 21.9191 8.43534 21.8506 8.4348H12.1939L12.4953 9.52176H21.243L20.0046 16.0435H13.0473L10.9276 8.17937C10.9047 8.09592 10.8649 8.02021 10.8116 7.9587C10.7583 7.89719 10.6931 7.8517 10.6215 7.82611L8.71983 7.14133C8.66136 7.12027 8.59992 7.11292 8.53902 7.11969C8.47812 7.12646 8.41896 7.14721 8.3649 7.18077C8.25574 7.24855 8.17403 7.36437 8.13774 7.50274C8.10145 7.64111 8.11356 7.79071 8.1714 7.91862C8.22925 8.04654 8.32809 8.14228 8.44618 8.1848L10.1113 8.78263L12.2402 16.6631L11.4796 17.3913L11.4193 17.462C11.2311 17.7161 11.1245 18.0391 11.1177 18.3753C11.1109 18.7116 11.2045 19.0402 11.3822 19.3044C11.5086 19.4845 11.6692 19.6275 11.8513 19.7219C12.0333 19.8162 12.2316 19.8594 12.4304 19.8478H20.1716C20.2946 19.8478 20.4126 19.7906 20.4996 19.6887C20.5866 19.5867 20.6354 19.4485 20.6354 19.3044C20.6354 19.1602 20.5866 19.022 20.4996 18.9201C20.4126 18.8182 20.2946 18.7609 20.1716 18.7609H12.3562C12.3028 18.7588 12.2507 18.7405 12.2051 18.7079C12.1595 18.6753 12.1218 18.6295 12.0957 18.5749C12.0696 18.5203 12.0559 18.4586 12.056 18.396C12.0562 18.3334 12.0701 18.2719 12.0965 18.2174L13.2143 17.1305H20.3757C20.4829 17.1335 20.5877 17.093 20.6723 17.0157C20.7568 16.9384 20.8159 16.8291 20.8395 16.7065L22.3098 9.09785C22.3239 9.01683 22.3221 8.9331 22.3044 8.85305C22.2867 8.77299 22.2537 8.69872 22.2078 8.63589V8.63589Z" fill="white"/>
</svg>
