<svg width="40" height="36" viewBox="0 0 40 36" fill="none" xmlns="http://www.w3.org/2000/svg">
<g filter="url(#filter0_d_201_560)">
<path d="M35 11H5C4.73478 11 4.48043 11.1054 4.29289 11.2929C4.10536 11.4804 4 11.7348 4 12C4 12.2652 4.10536 12.5196 4.29289 12.7071C4.48043 12.8946 4.73478 13 5 13H35C35.2652 13 35.5196 12.8946 35.7071 12.7071C35.8946 12.5196 36 12.2652 36 12C36 11.7348 35.8946 11.4804 35.7071 11.2929C35.5196 11.1054 35.2652 11 35 11Z" fill="white"/>
<path d="M30 17H10C9.73478 17 9.48043 17.1054 9.29289 17.2929C9.10536 17.4804 9 17.7348 9 18C9 18.2652 9.10536 18.5196 9.29289 18.7071C9.48043 18.8946 9.73478 19 10 19H30C30.2652 19 30.5196 18.8946 30.7071 18.7071C30.8946 18.5196 31 18.2652 31 18C31 17.7348 30.8946 17.4804 30.7071 17.2929C30.5196 17.1054 30.2652 17 30 17Z" fill="white"/>
<path d="M25 23H15C14.7348 23 14.4804 23.1054 14.2929 23.2929C14.1054 23.4804 14 23.7348 14 24C14 24.2652 14.1054 24.5196 14.2929 24.7071C14.4804 24.8946 14.7348 25 15 25H25C25.2652 25 25.5196 24.8946 25.7071 24.7071C25.8946 24.5196 26 24.2652 26 24C26 23.7348 25.8946 23.4804 25.7071 23.2929C25.5196 23.1054 25.2652 23 25 23Z" fill="white"/>
</g>
<defs>
<filter id="filter0_d_201_560" x="-2" y="0" width="44" height="44" filterUnits="userSpaceOnUse" color-interpolation-filters="sRGB">
<feFlood flood-opacity="0" result="BackgroundImageFix"/>
<feColorMatrix in="SourceAlpha" type="matrix" values="0 0 0 0 0 0 0 0 0 0 0 0 0 0 0 0 0 0 127 0" result="hardAlpha"/>
<feOffset dy="4"/>
<feGaussianBlur stdDeviation="2"/>
<feComposite in2="hardAlpha" operator="out"/>
<feColorMatrix type="matrix" values="0 0 0 0 0 0 0 0 0 0 0 0 0 0 0 0 0 0 0.25 0"/>
<feBlend mode="normal" in2="BackgroundImageFix" result="effect1_dropShadow_201_560"/>
<feBlend mode="normal" in="SourceGraphic" in2="effect1_dropShadow_201_560" result="shape"/>
</filter>
</defs>
</svg>
