<svg width="70" height="70" viewBox="0 0 70 70" fill="none" xmlns="http://www.w3.org/2000/svg">
<path d="M0 13.125V17.5H41.5625V50.3125H28.0963C27.1206 46.5522 23.7388 43.75 19.6875 43.75C15.6362 43.75 12.2544 46.5522 11.2788 50.3125H8.75V39.375H4.375V54.6875H11.2788C12.2544 58.4478 15.6362 61.25 19.6875 61.25C23.7388 61.25 27.1206 58.4478 28.0963 54.6875H46.2788C47.2544 58.4478 50.6362 61.25 54.6875 61.25C58.7388 61.25 62.1206 58.4478 63.0962 54.6875H70V36.8463L69.8622 36.5028L65.4872 23.3778L65.0125 21.875H45.9375V13.125H0ZM2.1875 21.875V26.25H21.875V21.875H2.1875ZM45.9375 26.25H61.8647L65.625 37.4609V50.3125H63.0962C62.1206 46.5522 58.7388 43.75 54.6875 43.75C50.6362 43.75 47.2544 46.5522 46.2788 50.3125H45.9375V26.25ZM4.375 30.625V35H17.5V30.625H4.375ZM19.6875 48.125C22.1309 48.125 24.0625 50.0566 24.0625 52.5C24.0625 54.9434 22.1309 56.875 19.6875 56.875C17.2441 56.875 15.3125 54.9434 15.3125 52.5C15.3125 50.0566 17.2441 48.125 19.6875 48.125ZM54.6875 48.125C57.1309 48.125 59.0625 50.0566 59.0625 52.5C59.0625 54.9434 57.1309 56.875 54.6875 56.875C52.2441 56.875 50.3125 54.9434 50.3125 52.5C50.3125 50.0566 52.2441 48.125 54.6875 48.125Z" fill="white"/>
</svg>
