<svg width="30" height="30" viewBox="0 0 30 30" fill="none" xmlns="http://www.w3.org/2000/svg">
<path d="M14.2738 9.36958C15.2156 9.36872 16.1364 9.6472 16.9199 10.1698C17.7034 10.6924 18.3143 11.4357 18.6753 12.3055C19.0363 13.1754 19.1312 14.1328 18.948 15.0566C18.7648 15.9804 18.3117 16.8291 17.6461 17.4953C16.9804 18.1616 16.1321 18.6155 15.2085 18.7995C14.2849 18.9836 13.3274 18.8895 12.4572 18.5293C11.587 18.1691 10.8432 17.5589 10.3199 16.7759C9.79657 15.9929 9.51724 15.0722 9.51724 14.1304C9.52295 12.8703 10.0258 11.6633 10.9164 10.7718C11.8071 9.88037 13.0136 9.37644 14.2738 9.36958ZM14.2738 8.47827C13.1559 8.47827 12.0631 8.80977 11.1336 9.43083C10.2041 10.0519 9.47963 10.9347 9.05183 11.9675C8.62403 13.0003 8.5121 14.1367 8.73019 15.2331C8.94828 16.3295 9.4866 17.3367 10.2771 18.1271C11.0675 18.9176 12.0747 19.4559 13.1711 19.674C14.2675 19.8921 15.404 19.7802 16.4368 19.3524C17.4696 18.9246 18.3523 18.2001 18.9734 17.2706C19.5944 16.3411 19.9259 15.2483 19.9259 14.1304C19.9259 12.6314 19.3304 11.1937 18.2704 10.1338C17.2105 9.07377 15.7728 8.47827 14.2738 8.47827Z" fill="white"/>
<path d="M22.3916 21.6478L19.1872 18.4217L18.5698 19.0347L21.7742 22.2608C21.8144 22.3014 21.8623 22.3336 21.915 22.3556C21.9677 22.3777 22.0242 22.3891 22.0813 22.3893C22.1385 22.3895 22.1951 22.3785 22.2479 22.3568C22.3008 22.3351 22.3489 22.3032 22.3894 22.263C22.4299 22.2227 22.4621 22.1749 22.4842 22.1222C22.5062 22.0695 22.5177 22.013 22.5179 21.9558C22.5181 21.8987 22.507 21.8421 22.4854 21.7892C22.4637 21.7364 22.4318 21.6883 22.3916 21.6478Z" fill="white"/>
</svg>
